# xmcd
#
# Track frame offsets:
#	150
#	14390
#	26104
#	43930
#	62381
#	77133
#	92844
#	105636
#	143413
#	160595
#	185807
#	205586
#	222751
#	242112
#	251122
#
# Disc length: 4175 seconds
#
# Revision: 0
# Processed by: cddbd v1.5.2PL0 Copyright (c) Steve Scherf et al.
# Submitted via: dBpowerAMP V4.0
#
DISCID=c9104d0f
DTITLE=Amplitude Valvulada - Demo
DYEAR=2006
DGENRE=Blues
TTITLE0=Apologia do Rock
TTITLE1=Jogue Tudo pro Ar
TTITLE2=O Bom e Velho Professor
TTITLE3=Réi Rei Ru
TTITLE4=Pinguim
TTITLE5=Mendigo Blues
TTITLE6=Deixe o Vento Cantar
TTITLE7=Esse Blues
TTITLE8=10 Mil Anos
TTITLE9=O Homem de Um Amigo Só
TTITLE10=Blues da Loira
TTITLE11=Todo Meu Tempo
TTITLE12=Vê Se Me Deixa em Paz
TTITLE13=Pode Me Trocar
TTITLE14=O Velho Jack
EXTD=www.amplitudevalvulada.cjb.net
EXTT0=
EXTT1=
EXTT2=
EXTT3=
EXTT4=
EXTT5=
EXTT6=
EXTT7=
EXTT8=
EXTT9=
EXTT10=
EXTT11=
EXTT12=
EXTT13=
EXTT14=
PLAYORDER=
